<svg width="16" height="16" viewBox="0 0 16 16" xmlns="http://www.w3.org/2000/svg">
  <!-- Circular background -->
  <circle cx="8" cy="8" r="8" fill="#72d1a8"/>
  
  <!-- Letter C -->
  <path d="M12.5 5.5c-1-1.5-2.7-2.5-4.625-2.5c-3.1 0-5.625 2.525-5.625 5.625s2.525 5.625 5.625 5.625c1.925 0 3.625-1 4.625-2.5"
    fill="none" 
    stroke="white"
    stroke-width="1.5"
    stroke-linecap="round"
    transform="translate(0, -0.625)"/>
    
  <!-- Letter S -->
  <path d="M9.5 6.75c0-0.345-0.28-0.625-0.625-0.625h-1.5c-0.345 0-0.625 0.28-0.625 0.625v0.75c0 0.345 0.28 0.625 0.625 0.625h1.5c0.345 0 0.625 0.28 0.625 0.625v0.75c0 0.345-0.28 0.625-0.625 0.625h-1.5c-0.345 0-0.625-0.28-0.625-0.625"
    fill="none"
    stroke="white" 
    stroke-width="1"
    stroke-linecap="round"/>
</svg>